<svg width="100" height="100" viewBox="0 0 100 100" fill="none" xmlns="http://www.w3.org/2000/svg">
<g id="Dribbble-Light-Preview">
<g id="icons">
<path id="email-[#1564]" fill-rule="evenodd" clip-rule="evenodd" d="M20 12.93C20 10.17 22.24 10 25 10H75C77.76 10 80 10.17 80 12.93V19.1751L52.235 33.06C50.83 33.76 49.17 33.76 47.765 33.06L20 19.1751V12.93ZM11.38 26.0449L45.53 43.1201C48.345 44.5301 51.655 44.5301 54.47 43.1201L88.62 26.0449C89.465 25.6249 90 24.7601 90 23.8101V7.92999C90 2.40499 85.525 0 80 0H20C14.475 0 10 2.40499 10 7.92999V23.8101C10 24.7601 10.535 25.6249 11.38 26.0449ZM90 82.93C90 85.69 87.76 90 85 90H15C12.24 90 10 85.69 10 82.93V50.5801C10 48.7251 11.955 47.515 13.62 48.345C34.5 58.785 28.085 55.58 45.595 64.335C48.37 65.725 51.64 65.7451 54.43 64.3851C71.785 55.9651 64.49 59.4851 86.42 48.9551C88.075 48.1551 90 49.365 90 51.21V82.93ZM85.53 37.59L52.235 54.2401C50.83 54.9401 49.17 54.9401 47.765 54.2401L14.47 37.59C7.82499 34.27 0 39.105 0 46.535V87.93C0 93.455 4.475 100 10 100H90C95.525 100 100 93.455 100 87.93V46.535C100 39.105 92.175 34.27 85.53 37.59Z" fill="url(#paint0_linear_13_46)"/>
</g>
</g>
<defs>
<linearGradient id="paint0_linear_13_46" x1="-27.5" y1="-18.3333" x2="255" y2="187.5" gradientUnits="userSpaceOnUse">
<stop stop-color="#1F614D"/>
<stop offset="1" stop-color="#C0E2D8"/>
</linearGradient>
</defs>
</svg>
